<?xml version="1.0" standalone="no"?>
<!DOCTYPE svg PUBLIC "-//W3C//DTD SVG 20010904//EN"
 "http://www.w3.org/TR/2001/REC-SVG-20010904/DTD/svg10.dtd">
<svg version="1.0" xmlns="http://www.w3.org/2000/svg"
 width="1000.000000pt" height="1000.000000pt" viewBox="0 0 1000.000000 1000.000000"
 preserveAspectRatio="xMidYMid meet">

<g transform="translate(0.000000,1000.000000) scale(0.100000,-0.100000)"
fill="#000000" stroke="none">
<path d="M4772 8659 c-979 -59 -1903 -517 -2549 -1262 l-42 -49 -78 13 c-110
18 -376 16 -493 -4 -188 -32 -371 -96 -515 -178 -307 -176 -511 -427 -593
-729 -22 -83 -26 -115 -26 -250 0 -135 4 -167 26 -250 96 -352 379 -656 750
-806 l82 -33 -3 -58 c-3 -86 18 -401 35 -528 91 -675 354 -1286 788 -1829 103
-130 402 -429 532 -532 930 -742 2101 -995 3239 -699 497 129 958 363 1379
699 130 103 429 402 532 532 434 544 697 1154 789 1831 18 136 39 480 33 545
-3 27 -1 48 4 48 24 0 173 66 253 111 307 176 511 427 593 729 22 83 26 115
26 250 0 135 -4 167 -26 250 -126 465 -548 810 -1108 907 -120 21 -400 22
-516 1 l-81 -14 -59 69 c-86 101 -324 330 -440 423 -615 494 -1324 767 -2114
814 -182 11 -224 11 -418 -1z m503 -289 c197 -19 186 -15 218 -79 15 -31 27
-62 27 -70 0 -15 58 -122 71 -131 5 -3 15 -24 24 -45 15 -37 31 -57 108 -135
15 -15 27 -31 27 -34 0 -17 108 -124 131 -131 11 -4 19 -10 19 -15 0 -5 9 -12
21 -15 20 -7 81 -44 106 -65 7 -5 15 -10 19 -10 4 0 40 -16 81 -35 41 -19 80
-35 88 -35 7 0 15 -4 17 -9 4 -12 197 -80 258 -91 55 -11 156 -12 228 -4 l52
7 0 67 0 67 -52 7 c-29 3 -78 6 -108 6 -50 0 -149 26 -167 43 -3 4 -13 7 -22
7 -9 0 -29 7 -46 16 -16 8 -77 35 -134 60 -57 24 -123 58 -148 74 -24 17 -58
37 -76 46 -29 15 -127 110 -127 123 0 3 -25 33 -55 66 -31 33 -70 85 -87 115
-17 30 -34 57 -38 60 -4 3 -15 22 -23 43 -20 47 -23 46 135 6 497 -125 954
-357 1345 -682 110 -92 312 -288 337 -328 18 -28 12 -59 -10 -59 -8 0 -14 -9
-14 -20 0 -11 -7 -20 -15 -20 -8 0 -15 -7 -15 -15 0 -8 -7 -15 -15 -15 -8 0
-15 -7 -15 -15 0 -8 -7 -15 -15 -15 -8 0 -15 -9 -15 -20 0 -13 -7 -20 -20 -20
-11 0 -20 -6 -20 -12 -1 -7 -14 -24 -30 -38 -17 -13 -30 -30 -30 -37 0 -7 -7
-13 -15 -13 -8 0 -15 -7 -15 -15 0 -8 -7 -15 -15 -15 -8 0 -15 -7 -15 -15 0
-8 -7 -15 -15 -15 -8 0 -15 -7 -15 -15 0 -8 -7 -15 -15 -15 -8 0 -15 -9 -15
-20 0 -11 -7 -20 -15 -20 -8 0 -15 -7 -15 -15 0 -8 -5 -15 -11 -15 -15 0 -59
-42 -59 -57 0 -7 -7 -13 -15 -13 -8 0 -15 -5 -15 -10 0 -6 -20 -30 -45 -53
-25 -24 -45 -49 -45 -55 0 -7 -7 -12 -15 -12 -8 0 -15 -7 -15 -15 0 -8 -7 -15
-15 -15 -8 0 -15 -7 -15 -15 0 -8 -7 -15 -15 -15 -8 0 -15 -9 -15 -20 0 -13
-7 -20 -20 -20 -11 0 -20 -6 -20 -12 -1 -7 -14 -24 -30 -38 -17 -13 -30 -30
-30 -37 0 -7 -7 -13 -15 -13 -8 0 -15 -7 -15 -15 0 -24 -18 -17 -34 13 -56
107 -204 247 -331 310 -124 61 -195 77 -355 77 -160 0 -231 -16 -355 -77 -133
-66 -278 -205 -337 -323 -11 -22 -22 -42 -24 -43 -1 -2 -24 7 -51 21 -105 55
-167 70 -256 64 -96 -6 -170 -27 -221 -62 -20 -14 -41 -25 -46 -25 -5 0 -18
17 -29 38 -59 116 -204 254 -336 320 -124 61 -195 77 -355 77 -124 0 -156 -3
-220 -23 -169 -54 -310 -151 -409 -283 -34 -44 -61 -75 -61 -70 0 6 -7 11 -15
11 -8 0 -15 7 -15 15 0 8 -9 15 -20 15 -11 0 -20 7 -20 15 0 8 -7 15 -15 15
-8 0 -15 9 -15 20 0 11 -6 20 -12 20 -7 1 -24 14 -38 30 -13 17 -30 30 -37 30
-7 0 -13 7 -13 15 0 8 -7 15 -15 15 -8 0 -15 7 -15 15 0 8 -7 15 -15 15 -8 0
-15 7 -15 15 0 8 -7 15 -15 15 -8 0 -15 7 -15 15 0 8 -9 15 -20 15 -13 0 -20
7 -20 20 0 11 -7 20 -15 20 -8 0 -15 7 -15 15 0 8 -7 15 -15 15 -8 0 -15 7
-15 15 0 8 -7 15 -15 15 -8 0 -15 7 -15 15 0 8 -9 15 -20 15 -11 0 -20 7 -20
15 0 8 -7 15 -15 15 -8 0 -15 7 -15 15 0 8 -7 15 -15 15 -8 0 -15 5 -15 11 0
15 -42 59 -57 59 -7 0 -13 7 -13 15 0 8 -7 15 -15 15 -8 0 -15 7 -15 15 0 8
-7 15 -15 15 -8 0 -15 7 -15 15 0 8 -7 15 -15 15 -8 0 -15 7 -15 15 0 8 -9 15
-20 15 -13 0 -20 7 -20 20 0 11 -7 20 -15 20 -8 0 -15 7 -15 15 0 8 -4 15 -10
15 -5 0 -25 16 -44 35 -33 32 -34 35 -17 47 10 7 19 17 19 21 1 17 106 129
128 138 13 4 24 15 24 22 0 16 175 174 300 269 369 283 783 483 1238 597 66
17 125 31 131 31 10 0 -1 -47 -19 -81 -5 -9 -12 -34 -16 -55 -3 -22 -14 -48
-24 -59 -10 -11 -20 -32 -24 -47 -3 -16 -11 -28 -16 -28 -6 0 -10 -7 -10 -15
0 -16 -25 -60 -47 -83 -7 -7 -13 -20 -13 -27 0 -23 -134 -150 -189 -180 -28
-16 -51 -32 -51 -36 0 -4 -9 -11 -20 -14 -12 -4 -28 -15 -38 -25 -9 -10 -60
-32 -112 -50 -52 -17 -104 -35 -115 -40 -62 -26 -119 -39 -194 -44 -46 -3 -99
-11 -117 -18 -34 -12 -34 -13 -34 -75 l0 -62 36 -7 c19 -3 90 -1 156 5 103 10
147 20 302 72 119 39 188 67 201 82 21 22 67 54 140 98 22 13 55 38 73 56 18
18 36 33 40 33 4 0 21 23 37 51 17 28 36 57 43 64 6 8 12 18 12 23 0 5 7 15
15 22 8 7 15 20 15 30 0 10 7 23 15 30 8 7 15 19 15 27 0 8 9 27 19 42 11 15
23 40 26 57 4 16 10 38 15 49 13 28 47 153 56 198 4 27 12 39 28 42 18 4 182
25 196 25 9 0 37 -61 55 -120 24 -74 32 -307 15 -381 -14 -60 -41 -117 -77
-166 -12 -17 -23 -34 -23 -38 0 -5 -55 -79 -90 -122 -6 -7 -10 -17 -10 -23 0
-11 -24 -35 -93 -98 -21 -18 -37 -37 -37 -42 0 -5 -12 -13 -27 -16 -16 -4 -35
-15 -43 -24 -17 -19 -147 -100 -161 -100 -5 0 -9 -31 -9 -70 l0 -70 70 0 c40
0 70 4 70 10 0 6 6 10 13 10 14 0 101 54 126 78 7 7 31 22 52 33 21 10 57 39
80 64 22 24 49 47 60 50 10 4 19 13 19 21 0 20 40 81 84 128 20 21 36 43 36
48 0 5 11 24 24 41 13 18 31 48 40 67 19 38 56 172 56 202 0 38 18 15 53 -67
20 -46 45 -94 56 -107 12 -12 21 -30 21 -40 0 -10 7 -21 15 -24 8 -3 20 -25
27 -48 31 -107 142 -218 263 -262 11 -4 49 -18 85 -31 192 -73 252 -87 343
-77 l57 7 0 67 0 67 -53 7 c-30 3 -85 17 -123 30 -207 72 -269 97 -293 119
-14 13 -38 35 -53 47 -16 13 -28 27 -28 32 0 5 -11 20 -24 33 -13 13 -30 47
-37 74 -7 28 -17 51 -21 51 -5 0 -16 17 -26 38 -9 20 -20 39 -23 42 -11 9 -47
85 -70 145 -13 33 -28 66 -33 74 -23 30 -35 111 -36 229 l0 122 58 0 c31 0
102 -5 157 -10z m3187 -1250 c269 -55 512 -202 656 -398 188 -255 218 -562 81
-835 -127 -252 -381 -440 -707 -521 -53 -13 -109 -29 -124 -35 -26 -10 -26
-12 -15 -48 15 -54 15 -493 -1 -623 -97 -789 -425 -1474 -967 -2015 -541 -542
-1226 -870 -2015 -967 -137 -17 -583 -17 -720 0 -602 74 -1121 273 -1603 615
-701 499 -1196 1289 -1346 2147 -44 253 -67 583 -49 717 7 49 12 103 12 122
l1 34 -130 32 c-146 36 -210 60 -305 112 -232 126 -397 321 -466 548 -23 77
-27 108 -27 215 0 107 4 138 27 215 116 386 493 653 976 690 145 11 460 -37
460 -71 0 -8 7 -14 15 -14 8 0 15 -7 15 -15 0 -8 7 -15 15 -15 8 0 15 -7 15
-15 0 -8 9 -15 20 -15 13 0 20 -7 20 -20 0 -11 7 -20 15 -20 8 0 15 -7 15 -15
0 -8 6 -15 13 -15 6 -1 23 -14 37 -30 13 -17 30 -30 37 -30 7 0 13 -7 13 -15
0 -8 7 -15 15 -15 8 0 15 -7 15 -15 0 -8 7 -15 15 -15 8 0 15 -7 15 -15 0 -8
7 -15 15 -15 8 0 15 -7 15 -16 0 -9 9 -18 20 -21 11 -3 20 -12 20 -19 0 -8 7
-14 15 -14 8 0 15 -7 15 -15 0 -8 7 -15 15 -15 8 0 15 -7 15 -15 0 -8 7 -15
15 -15 8 0 15 -7 15 -15 0 -8 9 -15 20 -15 11 0 20 -7 20 -15 0 -8 7 -15 15
-15 8 0 15 -9 15 -20 0 -11 6 -20 13 -20 6 -1 23 -14 37 -30 13 -17 30 -30 37
-30 7 0 13 -7 13 -15 0 -8 7 -15 15 -15 8 0 15 -7 15 -15 0 -8 7 -15 15 -15 8
0 15 -7 15 -15 0 -8 7 -15 15 -15 8 0 15 -7 15 -16 0 -9 9 -18 20 -21 11 -3
20 -12 20 -19 0 -8 7 -14 15 -14 8 0 15 -7 15 -15 0 -8 7 -15 15 -15 8 0 15
-7 15 -15 0 -8 7 -15 15 -15 8 0 15 -7 15 -15 0 -8 9 -15 20 -15 11 0 20 -7
20 -15 0 -8 7 -15 15 -15 8 0 15 -9 15 -20 0 -11 6 -20 13 -20 6 -1 23 -14 37
-30 13 -17 29 -30 36 -30 8 0 13 -39 17 -122 3 -87 11 -143 27 -193 84 -263
275 -453 540 -537 64 -20 96 -23 220 -23 124 0 156 3 220 23 265 84 456 273
540 537 17 54 23 101 27 210 2 77 6 150 9 162 4 23 70 93 86 93 5 0 28 9 50
20 55 26 96 25 164 -5 61 -27 91 -55 100 -92 4 -13 10 -23 14 -23 4 0 10 -64
12 -142 4 -110 11 -159 28 -213 84 -264 275 -453 540 -537 64 -20 96 -23 220
-23 160 0 231 16 355 77 234 117 409 367 430 616 10 109 15 132 30 132 8 0 15
7 15 15 0 8 7 15 15 15 8 0 15 7 15 15 0 8 7 15 15 15 8 0 15 9 15 20 0 11 7
20 15 20 8 0 15 7 15 15 0 8 5 15 11 15 15 0 59 42 59 58 0 6 7 12 15 12 8 0
15 6 15 13 1 6 14 23 30 37 17 13 30 30 30 37 0 7 7 13 15 13 8 0 15 7 15 15
0 8 7 15 15 15 8 0 15 7 15 15 0 8 7 15 15 15 8 0 15 7 15 15 0 8 7 15 15 15
8 0 15 9 15 20 0 13 7 20 20 20 11 0 20 6 20 13 1 6 14 23 30 37 17 13 30 30
30 37 0 7 7 13 15 13 8 0 15 7 15 15 0 8 7 15 15 15 8 0 15 7 15 15 0 8 7 15
15 15 8 0 15 7 15 15 0 8 7 15 15 15 8 0 15 9 15 20 0 11 7 20 15 20 8 0 15 7
15 15 0 8 7 15 15 15 8 0 15 7 15 15 0 8 7 15 16 15 9 0 18 9 21 20 3 11 12
20 19 20 8 0 14 6 14 13 1 6 14 23 30 37 17 13 30 30 30 37 0 7 7 13 15 13 8
0 15 7 15 15 0 8 7 15 15 15 8 0 15 7 15 15 0 8 7 15 15 15 8 0 15 7 15 15 0
8 7 15 15 15 8 0 15 9 15 20 0 11 7 20 15 20 8 0 15 6 15 13 0 16 39 33 136
57 173 44 371 47 556 10z m-4308 -540 c110 -28 190 -74 271 -155 150 -150 207
-356 155 -559 -28 -110 -74 -190 -155 -271 -150 -150 -356 -207 -559 -155
-110 28 -190 74 -271 155 -81 81 -127 161 -155 271 -36 141 -18 295 52 427 42
80 155 193 235 235 132 70 286 88 427 52z m2000 -10 c110 -28 190 -74 271
-155 150 -150 207 -356 155 -559 -28 -110 -74 -190 -155 -271 -150 -150 -356
-207 -559 -155 -110 28 -190 74 -271 155 -150 150 -207 356 -155 559 28 110
74 190 155 271 150 150 356 207 559 155z"/>
<path d="M3628 3752 l-38 -3 0 -68 0 -68 53 -7 c28 -3 229 -6 445 -6 l392 0 0
-97 c0 -115 9 -318 16 -350 3 -16 14 -24 42 -29 45 -9 428 -11 436 -3 3 3 10
54 15 113 7 99 21 156 21 90 0 -43 29 -363 36 -402 5 -24 14 -36 33 -43 14 -6
102 -13 196 -16 157 -5 172 -4 193 13 24 20 22 11 87 509 14 105 27 195 30
202 3 10 83 11 357 6 194 -3 388 -3 431 1 l77 8 0 68 0 68 -72 6 c-77 6 -2687
14 -2750 8z m1218 -314 c-4 -89 -9 -164 -11 -167 -2 -4 -46 -5 -99 -3 l-96 3
0 127 c-1 70 -3 144 -6 165 l-6 37 113 0 112 0 -7 -162z m574 140 c0 -13 -11
-106 -25 -208 -14 -102 -31 -222 -37 -267 l-11 -83 -78 0 c-44 0 -79 3 -79 8
0 4 -11 124 -25 267 -14 143 -25 270 -25 283 0 22 1 22 140 22 139 0 140 0
140 -22z"/>
</g>
</svg>
